<svg xmlns="http://www.w3.org/2000/svg" xmlns:xlink="http://www.w3.org/1999/xlink" data-name="Layer 1" viewBox="0 0 512 512" id="CheckingPage"><defs><linearGradient id="a" x1="256" x2="256" y1="12" y2="498.037" gradientUnits="userSpaceOnUse"><stop offset="0" stop-color="#777777" class="stopColor00efd1 svgShape"></stop><stop offset="1" stop-color="#333333" class="stopColor00acea svgShape"></stop></linearGradient><linearGradient id="b" x1="179" x2="179" y1="12" y2="498.037" xlink:href="#a"></linearGradient><linearGradient id="c" x1="149" x2="149" y1="12" y2="498.037" xlink:href="#a"></linearGradient><linearGradient id="d" x1="85.372" x2="85.372" y1="12" y2="498.037" xlink:href="#a"></linearGradient><linearGradient id="e" x1="327.634" x2="327.634" y1="12" y2="498.037" xlink:href="#a"></linearGradient></defs><path fill="url(#a)" d="M446.187,21H150.874A46.685,46.685,0,0,0,104,67.56V75H24.859C20.441,75,17,79.033,17,83.451v344.5a62.531,62.531,0,0,0,18.406,44.633A61.876,61.876,0,0,0,77,490.964V491H346v-.1c1,.076,2.471.1,3.745.1h.176A63.06,63.06,0,0,0,413,427.945V406h74.141c4.418,0,7.859-3.966,7.859-8.385V69.854A48.82,48.82,0,0,0,446.187,21ZM120,67.56A30.667,30.667,0,0,1,150.874,37H409.832A48.574,48.574,0,0,0,397,70V327.607c-14-24.145-39.509-40.473-69.228-40.473A78.886,78.886,0,0,0,303,291.155V83.451A8.7,8.7,0,0,0,294.656,75H120ZM263.767,367a63.867,63.867,0,1,1,63.867,63.867A63.938,63.938,0,0,1,263.767,367ZM80.056,475h-.051a47,47,0,0,1-47-47.055V91H287V298.479A78.509,78.509,0,0,0,247.939,367a79.788,79.788,0,0,0,39.314,68.8,63.073,63.073,0,0,0,20.58,39.2Zm303.133-13.757A46.749,46.749,0,0,1,349.912,475h-.158a47.156,47.156,0,0,1-44.383-31.331,79.381,79.381,0,0,0,22.229,3.189c29.719,0,55.4-16.32,69.4-40.465v21.544A46.713,46.713,0,0,1,383.189,461.243ZM479,390H413V69.989A33,33,0,0,1,445.967,37h.205A32.821,32.821,0,0,1,479,69.867Z"></path><path fill="url(#b)" d="M238.256 284H119.744a8 8 0 0 0 0 16H238.256a8 8 0 0 0 0-16zM238.256 324H119.744a8 8 0 0 0 0 16H238.256a8 8 0 0 0 0-16z"></path><path fill="url(#c)" d="M119.744,220h58.512a8,8,0,0,0,0-16H119.744a8,8,0,0,0,0,16Z"></path><path fill="url(#b)" d="M238.256,244H119.744a8,8,0,0,0,0,16H238.256a8,8,0,0,0,0-16Z"></path><path fill="url(#d)" d="M91 284H79.744a8 8 0 0 0 0 16H91a8 8 0 0 0 0-16zM91 324H79.744a8 8 0 0 0 0 16H91a8 8 0 0 0 0-16zM91 204H79.744a8 8 0 0 0 0 16H91a8 8 0 0 0 0-16zM91 244H79.744a8 8 0 0 0 0 16H91a8 8 0 0 0 0-16z"></path><path fill="url(#e)" d="M363.859,346.609a8,8,0,0,0-11.186-1.692L316.619,371.5l-12.38-16.455a8,8,0,1,0-12.785,9.62L308.6,387.453a8,8,0,0,0,11.141,1.63l42.43-31.288A8,8,0,0,0,363.859,346.609Z"></path></svg>