<svg xmlns="http://www.w3.org/2000/svg" viewBox="0 0 25 25" id="Shutdown"><path fill-rule="evenodd" d="M12.5 0A12.5 12.5 0 0 0 0 12.5 12.5 12.5 0 0 0 12.5 25 12.5 12.5 0 0 0 25 12.5 12.5 12.5 0 0 0 12.5 0zm-.541 6h1.082v4.38h-1.082V6zM9.527 7.906l.541.936a4.86 4.86 0 0 0-2.265 5.472A4.858 4.858 0 0 0 12.5 17.92a4.858 4.858 0 0 0 4.697-3.606 4.86 4.86 0 0 0-2.265-5.472l.54-.936a5.95 5.95 0 0 1 2.77 6.688A5.949 5.949 0 0 1 12.5 19a5.949 5.949 0 0 1-5.742-4.406 5.95 5.95 0 0 1 2.77-6.688z" fill="#333333" class="color000000 svgShape"></path></svg>